<svg xmlns="http://www.w3.org/2000/svg" version="1.1" xmlns:xlink="http://www.w3.org/1999/xlink" xmlns:svgjs="http://svgjs.dev/svgjs" width="1500" height="329" viewBox="0 0 1500 329"><g transform="matrix(1,0,0,1,1.8841993695841666,0.6062455101351816)"><svg viewBox="0 0 396 87" data-background-color="#ffffff" preserveAspectRatio="xMidYMid meet" height="329" width="1500" xmlns="http://www.w3.org/2000/svg" xmlns:xlink="http://www.w3.org/1999/xlink"><g id="tight-bounds" transform="matrix(1,0,0,1,0.2400000000000091,0.40443746459490626)"><svg viewBox="0 0 395.52 86.19112507081019" height="86.19112507081019" width="395.52"><g><svg viewBox="0 0 576.14100202943 125.55178287909716" height="86.19112507081019" width="395.52"><g transform="matrix(1,0,0,1,180.62100202943003,16.730088330740287)"><svg viewBox="0 0 395.52 92.09160621761659" height="92.09160621761659" width="395.52"><g id="textblocktransform"><svg viewBox="0 0 395.52 92.09160621761659" height="92.09160621761659" width="395.52" id="textblock"><g><svg viewBox="0 0 395.52 92.09160621761659" height="92.09160621761659" width="395.52"><g transform="matrix(1,0,0,1,0,0)"><svg width="395.52" viewBox="3.15 -35.5 154.39 35.95" height="92.09160621761659" data-palette-color="#0a2c3d"><path d="M5.8 0.25L5.8 0.25Q4.8 0.25 4.3-0.33 3.8-0.9 3.8-1.95L3.8-1.95 3.8-22.4Q3.8-23.45 4.3-24 4.8-24.55 5.8-24.55L5.8-24.55Q6.75-24.55 7.3-24 7.85-23.45 7.85-22.4L7.85-22.4 7.85-1.95Q7.85-0.9 7.33-0.33 6.8 0.25 5.8 0.25ZM5.8-30.15L5.8-30.15Q4.55-30.15 3.85-30.83 3.15-31.5 3.15-32.65L3.15-32.65Q3.15-33.85 3.85-34.48 4.55-35.1 5.8-35.1L5.8-35.1Q7.1-35.1 7.78-34.48 8.45-33.85 8.45-32.65L8.45-32.65Q8.45-31.5 7.78-30.83 7.1-30.15 5.8-30.15ZM36.45 0L18.05 0Q17.05 0 16.5-0.58 15.95-1.15 15.95-2.15L15.95-2.15 15.95-33.35Q15.95-34.4 16.47-34.95 17-35.5 18-35.5L18-35.5Q19-35.5 19.52-34.95 20.05-34.4 20.05-33.35L20.05-33.35 20.05-3.6 36.45-3.6Q37.35-3.6 37.85-3.13 38.35-2.65 38.35-1.8L38.35-1.8Q38.35-0.95 37.85-0.48 37.35 0 36.45 0L36.45 0ZM52.4 0.45L52.4 0.45Q48.85 0.45 46.25-1.1 43.65-2.65 42.22-5.48 40.8-8.3 40.8-12.15L40.8-12.15Q40.8-15.05 41.6-17.38 42.4-19.7 43.95-21.35 45.5-23 47.62-23.88 49.75-24.75 52.4-24.75L52.4-24.75Q55.95-24.75 58.55-23.2 61.15-21.65 62.57-18.82 64-16 64-12.15L64-12.15Q64-9.25 63.2-6.95 62.4-4.65 60.85-2.98 59.3-1.3 57.17-0.43 55.05 0.45 52.4 0.45ZM52.4-2.8L52.4-2.8Q54.65-2.8 56.35-3.9 58.05-5 58.97-7.1 59.9-9.2 59.9-12.15L59.9-12.15Q59.9-16.7 57.87-19.1 55.85-21.5 52.4-21.5L52.4-21.5Q50.1-21.5 48.42-20.43 46.75-19.35 45.82-17.28 44.9-15.2 44.9-12.15L44.9-12.15Q44.9-7.65 46.95-5.23 49-2.8 52.4-2.8ZM80.39 0.45L80.39 0.45Q76.74 0.45 74.09-1.15 71.44-2.75 70.02-5.63 68.59-8.5 68.59-12.3L68.59-12.3Q68.59-15.2 69.39-17.5 70.19-19.8 71.74-21.43 73.29-23.05 75.47-23.9 77.64-24.75 80.39-24.75L80.39-24.75Q82.19-24.75 84.14-24.2 86.09-23.65 87.69-22.3L87.69-22.3Q88.19-21.95 88.34-21.45 88.49-20.95 88.34-20.48 88.19-20 87.84-19.68 87.49-19.35 86.97-19.3 86.44-19.25 85.89-19.65L85.89-19.65Q84.59-20.65 83.24-21.05 81.89-21.45 80.64-21.45L80.64-21.45Q78.69-21.45 77.24-20.83 75.79-20.2 74.79-19.05 73.79-17.9 73.27-16.2 72.74-14.5 72.74-12.25L72.74-12.25Q72.74-7.9 74.79-5.38 76.84-2.85 80.64-2.85L80.64-2.85Q81.89-2.85 83.22-3.25 84.54-3.65 85.89-4.65L85.89-4.65Q86.44-5.05 86.94-5 87.44-4.95 87.79-4.63 88.14-4.3 88.27-3.8 88.39-3.3 88.24-2.83 88.09-2.35 87.59-2L87.59-2Q85.99-0.7 84.09-0.13 82.19 0.45 80.39 0.45ZM100.69 0.45L100.69 0.45Q98.19 0.45 96.22-0.53 94.24-1.5 93.09-3.2 91.94-4.9 91.94-7L91.94-7Q91.94-9.7 93.32-11.25 94.69-12.8 97.87-13.45 101.04-14.1 106.54-14.1L106.54-14.1 108.79-14.1 108.79-11.45 106.59-11.45Q102.54-11.45 100.22-11.08 97.89-10.7 96.97-9.8 96.04-8.9 96.04-7.25L96.04-7.25Q96.04-5.2 97.47-3.9 98.89-2.6 101.34-2.6L101.34-2.6Q103.34-2.6 104.87-3.55 106.39-4.5 107.27-6.15 108.14-7.8 108.14-9.95L108.14-9.95 108.14-15.65Q108.14-18.75 106.89-20.13 105.64-21.5 102.79-21.5L102.79-21.5Q101.04-21.5 99.29-21.05 97.54-20.6 95.59-19.6L95.59-19.6Q94.89-19.25 94.39-19.38 93.89-19.5 93.59-19.9 93.29-20.3 93.24-20.83 93.19-21.35 93.47-21.85 93.74-22.35 94.34-22.65L94.34-22.65Q96.54-23.75 98.69-24.25 100.84-24.75 102.79-24.75L102.79-24.75Q105.94-24.75 107.99-23.73 110.04-22.7 111.04-20.63 112.04-18.55 112.04-15.3L112.04-15.3 112.04-1.75Q112.04-0.75 111.57-0.2 111.09 0.35 110.19 0.35L110.19 0.35Q109.24 0.35 108.74-0.2 108.24-0.75 108.24-1.75L108.24-1.75 108.24-5.65 108.69-5.65Q108.29-3.75 107.17-2.4 106.04-1.05 104.39-0.3 102.74 0.45 100.69 0.45ZM129.29 0.45L129.29 0.45Q126.44 0.45 124.51-0.58 122.59-1.6 121.64-3.58 120.69-5.55 120.69-8.4L120.69-8.4 120.69-21.15 117.34-21.15Q116.49-21.15 116.04-21.58 115.59-22 115.59-22.75L115.59-22.75Q115.59-23.5 116.04-23.9 116.49-24.3 117.34-24.3L117.34-24.3 120.69-24.3 120.69-30.05Q120.69-31.05 121.24-31.58 121.79-32.1 122.74-32.1L122.74-32.1Q123.69-32.1 124.21-31.58 124.74-31.05 124.74-30.05L124.74-30.05 124.74-24.3 131.04-24.3Q131.89-24.3 132.34-23.9 132.79-23.5 132.79-22.75L132.79-22.75Q132.79-22 132.34-21.58 131.89-21.15 131.04-21.15L131.04-21.15 124.74-21.15 124.74-8.8Q124.74-5.95 125.94-4.48 127.14-3 129.84-3L129.84-3Q130.79-3 131.46-3.2 132.14-3.4 132.59-3.4L132.59-3.4Q133.04-3.45 133.34-3.1 133.64-2.75 133.64-1.9L133.64-1.9Q133.64-1.3 133.41-0.8 133.19-0.3 132.64-0.1L132.64-0.1Q132.04 0.1 131.06 0.28 130.09 0.45 129.29 0.45ZM147.74 0.45L147.74 0.45Q143.89 0.45 141.11-1.07 138.34-2.6 136.81-5.4 135.29-8.2 135.29-12.1L135.29-12.1Q135.29-15.9 136.79-18.73 138.29-21.55 140.91-23.15 143.54-24.75 146.99-24.75L146.99-24.75Q149.44-24.75 151.39-23.93 153.34-23.1 154.71-21.55 156.09-20 156.81-17.8 157.54-15.6 157.54-12.85L157.54-12.85Q157.54-12.05 157.09-11.68 156.64-11.3 155.79-11.3L155.79-11.3 138.39-11.3 138.39-13.95 154.84-13.95 154.04-13.3Q154.04-16 153.24-17.88 152.44-19.75 150.91-20.75 149.39-21.75 147.09-21.75L147.09-21.75Q144.54-21.75 142.76-20.58 140.99-19.4 140.09-17.32 139.19-15.25 139.19-12.5L139.19-12.5 139.19-12.2Q139.19-7.6 141.41-5.2 143.64-2.8 147.74-2.8L147.74-2.8Q149.44-2.8 151.11-3.25 152.79-3.7 154.39-4.75L154.39-4.75Q155.09-5.2 155.66-5.18 156.24-5.15 156.59-4.83 156.94-4.5 157.06-4.03 157.19-3.55 156.96-3 156.74-2.45 156.09-2.05L156.09-2.05Q154.44-0.85 152.19-0.2 149.94 0.45 147.74 0.45Z" opacity="1" transform="matrix(1,0,0,1,0,0)" fill="#0a2c3d" class="wordmark-text-0" data-fill-palette-color="primary" id="text-0"></path></svg></g></svg></g></svg></g></svg></g><g><svg viewBox="0 0 158.880384 125.55178287909716" height="125.55178287909716" width="158.880384"><g><svg xmlns="http://www.w3.org/2000/svg" xmlns:xlink="http://www.w3.org/1999/xlink" version="1.1" x="0" y="0" viewBox="11.873433322080787 24.453 120.33610363192514 95.093" enable-background="new 0 0 144.083 144" xml:space="preserve" height="125.55178287909716" width="158.880384" class="icon-icon-0" data-fill-palette-color="accent" id="icon-0"><path d="M132.123 83.668L122.121 42.758A3 3 0 0 0 119.207 40.47H50.29V27.453A3 3 0 0 0 47.29 24.453H33.29A3 3 0 0 0 30.29 27.453V40.471H24.875A3 3 0 0 0 21.961 42.759L11.96 83.668A2.997 2.997 0 0 0 14.874 87.38H16.608V116.546A3 3 0 0 0 19.608 119.546H124.476A3 3 0 0 0 127.476 116.546V87.381H129.208A2.998 2.998 0 0 0 132.123 83.668M72.042 83.449C66.844 83.449 62.63 87.664 62.63 92.861V113.547H55.884V68.247L72.219 49.245 88.2 68.229V113.546H81.454V92.861A9.41 9.41 0 0 0 72.042 83.449M117.843 50.524H81.138L77.726 46.47H116.852zM36.29 30.453H44.29V40.471H36.29zM66.692 46.471L63.207 50.525H26.239L27.23 46.471zM22.608 87.381H49.883V113.547H22.608zM121.476 113.547H94.2V87.381H121.476z" fill="#ff5a3c" data-fill-palette-color="accent"></path><rect x="38.758" y="93.164" width="6" height="11.723" fill="#ff5a3c" data-fill-palette-color="accent"></rect><rect x="27.758" y="93.164" width="6" height="11.723" fill="#ff5a3c" data-fill-palette-color="accent"></rect><rect x="109.445" y="93.164" width="6" height="11.723" fill="#ff5a3c" data-fill-palette-color="accent"></rect><rect x="98.446" y="93.164" width="5.999" height="11.723" fill="#ff5a3c" data-fill-palette-color="accent"></rect></svg></g></svg></g></svg></g><defs></defs></svg><rect width="395.52" height="86.19112507081019" fill="none" stroke="none" visibility="hidden"></rect></g></svg></g></svg>